<svg width="200" height="200" viewBox="0 0 200 200" fill="none" xmlns="http://www.w3.org/2000/svg">
<g id="375454069_f4d7d9ea-2d13-4490-b69e-365f78f52649 3">
<g id="Group">
<path id="Vector" d="M141.163 158.747L142.019 160.624H57.9805L58.8365 158.747C60.7535 154.54 62.0785 150.181 62.7915 145.753C79.9075 132.095 91.7695 129.741 103.243 127.464C113.761 125.377 123.728 123.399 136.585 113.203V138C136.585 145.079 138.135 152.103 141.163 158.747Z" fill="white"/>
<path id="Vector_2" d="M58.8365 88.9894L57.9805 87.1124H142.019L141.163 88.9894C138.193 95.5064 136.645 102.387 136.587 109.329C123.372 120.41 113.308 122.408 102.659 124.521C96.8195 125.68 90.7805 126.878 83.9565 129.581C77.0985 132.297 70.3095 136.23 63.2825 141.567C63.3705 140.38 63.4145 139.19 63.4145 137.999V109.736C63.4145 102.656 61.8645 95.6334 58.8365 88.9894Z" fill="white"/>
<path id="Vector_3" d="M143.387 84.112H56.614L54.2923 74.8834C54.071 74.0036 55.0134 73.4304 56.0255 73.8351L60.3489 75.564C60.7748 75.7343 61.2354 75.7343 61.5879 75.564L66.4255 73.2262C66.7878 73.0511 67.2552 73.0511 67.6805 73.2262L73.3584 75.564C73.772 75.7343 74.2327 75.7343 74.5973 75.564L79.6032 73.2262C79.9781 73.0511 80.4455 73.0511 80.8581 73.2262L86.3686 75.5641C86.77 75.7344 87.2306 75.7344 87.6075 75.5641L92.782 73.2262C93.1694 73.0512 93.6369 73.0512 94.0369 73.2262L99.3793 75.5641C99.7684 75.7344 100.229 75.7344 100.618 75.5641L105.961 73.2262C106.361 73.0512 106.828 73.0512 107.216 73.2262L112.39 75.5641C112.767 75.7344 113.228 75.7344 113.629 75.5641L119.139 73.2263C119.552 73.0512 120.019 73.0512 120.394 73.2263L125.401 75.5642C125.766 75.7345 126.226 75.7345 126.64 75.5642L132.319 73.2263C132.744 73.0513 133.211 73.0513 133.573 73.2263L138.412 75.5643C138.765 75.7346 139.225 75.7346 139.651 75.5643L143.976 73.8351C144.988 73.4304 145.93 74.0036 145.709 74.8834L143.387 84.112Z" fill="white"/>
<path id="Vector_4" d="M56.6135 163.624H143.386L145.708 172.852C145.929 173.732 144.987 174.305 143.975 173.901L139.651 172.172C139.226 172.001 138.765 172.001 138.412 172.172L133.575 174.51C133.213 174.685 132.745 174.685 132.32 174.51L126.642 172.172C126.228 172.001 125.768 172.001 125.403 172.172L120.397 174.51C120.022 174.685 119.555 174.685 119.142 174.51L113.632 172.172C113.23 172.001 112.77 172.001 112.393 172.172L107.218 174.51C106.831 174.685 106.363 174.685 105.963 174.51L100.621 172.172C100.232 172.001 99.7713 172.001 99.3821 172.172L94.0395 174.51C93.6395 174.685 93.1721 174.685 92.7846 174.51L87.6101 172.172C87.2332 172.001 86.7726 172.001 86.3712 172.172L80.8609 174.51C80.4483 174.685 79.9809 174.685 79.606 174.51L74.5995 172.172C74.2348 172.001 73.7743 172.001 73.3607 172.172L67.6818 174.51C67.2566 174.685 66.7892 174.685 66.427 174.51L61.588 172.172C61.2356 172.001 60.7751 172.001 60.3492 172.172L56.0246 173.901C55.0125 174.305 54.0701 173.732 54.2914 172.852L56.6135 163.624Z" fill="white"/>
<g id="Group_2">
<path id="Subtract" fill-rule="evenodd" clip-rule="evenodd" d="M90.6148 28.3516C90.148 25.6235 86.903 24.4238 84.7738 26.1921L73.8723 35.2459C74.4584 36.0784 74.8026 37.0935 74.8026 38.1889C74.8026 39.7397 74.1129 41.1294 73.0235 42.068C74.1254 43.2023 74.8039 44.7502 74.8039 46.4566C74.8039 48.9871 73.3117 51.1692 71.1592 52.1708L90.4389 59.2987C93.0349 60.2585 95.6964 58.0481 95.2295 55.32L90.6148 28.3516Z" fill="white"/>
<path id="Subtract_2" fill-rule="evenodd" clip-rule="evenodd" d="M121.954 39.8422C120.643 42.3685 118.003 44.0945 114.96 44.0945C112.479 44.0945 110.266 42.9473 108.823 41.1543L104.61 63.2955C104.092 66.0145 106.712 68.2739 109.326 67.3625L135.16 58.353C137.774 57.4416 138.42 54.0429 136.324 52.2354L121.954 39.8422Z" fill="white"/>
</g>
</g>
</g>
</svg>
