<svg width="13" height="16" viewBox="0 0 13 16" fill="none" xmlns="http://www.w3.org/2000/svg">
<path id="&#239;&#143;&#133;" d="M6.99957 15.625C6.62457 16.0938 5.90582 16.0938 5.53082 15.625C3.93707 13.5938 0.280823 8.75 0.280823 6C0.280823 2.6875 2.96832 0 6.28082 0C9.59332 0 12.2808 2.6875 12.2808 6C12.2808 8.75 8.62457 13.5938 6.99957 15.625ZM6.28082 4C5.56207 4 4.90582 4.40625 4.53082 5C4.18707 5.625 4.18707 6.40625 4.53082 7C4.90582 7.625 5.56207 8 6.28082 8C6.96832 8 7.62457 7.625 7.99957 7C8.34332 6.40625 8.34332 5.625 7.99957 5C7.62457 4.40625 6.96832 4 6.28082 4Z" fill="#F5F5F5"/>
</svg>
